<svg xmlns="http://www.w3.org/2000/svg" width="600" height="480"><path fill="#0d1117" d="M0 0h600v480H0z"/><path fill="none" stroke="#1F2430" stroke-dasharray="5,8" stroke-width="2" d="M106.09 444h468.73" class="gridline" color="#000"/><g fill="none" stroke="currentColor" color="#000"><path stroke="#E6EDF3" d="M106.09 444h9m459.73 0h-9"/><text fill="#E6EDF3" stroke="none" font-family="Arial" font-size="12" text-anchor="end" transform="translate(97.7 447.9)"><tspan> 0</tspan></text></g><path fill="none" stroke="#1F2430" stroke-dasharray="5,8" stroke-width="2" d="M106.09 389.57h468.73" class="gridline" color="#000"/><g fill="none" stroke="currentColor" color="#000"><path stroke="#E6EDF3" d="M106.09 389.57h9m459.73 0h-9"/><text fill="#E6EDF3" stroke="none" font-family="Arial" font-size="12" text-anchor="end" transform="translate(97.7 393.47)"><tspan> 2x10</tspan><tspan dy="-6" font-size="9.6">8</tspan></text></g><path fill="none" stroke="#1F2430" stroke-dasharray="5,8" stroke-width="2" d="M106.09 335.15h468.73" class="gridline" color="#000"/><g fill="none" stroke="currentColor" color="#000"><path stroke="#E6EDF3" d="M106.09 335.15h9m459.73 0h-9"/><text fill="#E6EDF3" stroke="none" font-family="Arial" font-size="12" text-anchor="end" transform="translate(97.7 339.05)"><tspan> 4x10</tspan><tspan dy="-6" font-size="9.6">8</tspan></text></g><path fill="none" stroke="#1F2430" stroke-dasharray="5,8" stroke-width="2" d="M106.09 280.72h468.73" class="gridline" color="#000"/><g fill="none" stroke="currentColor" color="#000"><path stroke="#E6EDF3" d="M106.09 280.72h9m459.73 0h-9"/><text fill="#E6EDF3" stroke="none" font-family="Arial" font-size="12" text-anchor="end" transform="translate(97.7 284.62)"><tspan> 6x10</tspan><tspan dy="-6" font-size="9.6">8</tspan></text></g><path fill="none" stroke="#1F2430" stroke-dasharray="5,8" stroke-width="2" d="M106.09 226.29h468.73" class="gridline" color="#000"/><g fill="none" stroke="currentColor" color="#000"><path stroke="#E6EDF3" d="M106.09 226.29h9m459.73 0h-9"/><text fill="#E6EDF3" stroke="none" font-family="Arial" font-size="12" text-anchor="end" transform="translate(97.7 230.19)"><tspan> 8x10</tspan><tspan dy="-6" font-size="9.6">8</tspan></text></g><path fill="none" stroke="#1F2430" stroke-dasharray="5,8" stroke-width="2" d="M106.09 171.86h468.73" class="gridline" color="#000"/><g fill="none" stroke="currentColor" color="#000"><path stroke="#E6EDF3" d="M106.09 171.86h9m459.73 0h-9"/><text fill="#E6EDF3" stroke="none" font-family="Arial" font-size="12" text-anchor="end" transform="translate(97.7 175.76)"><tspan> 1x10</tspan><tspan dy="-6" font-size="9.6">9</tspan></text></g><path fill="none" stroke="#1F2430" stroke-dasharray="5,8" stroke-width="2" d="M106.09 117.44h468.73" class="gridline" color="#000"/><g fill="none" stroke="currentColor" color="#000"><path stroke="#E6EDF3" d="M106.09 117.44h9m459.73 0h-9"/><text fill="#E6EDF3" stroke="none" font-family="Arial" font-size="12" text-anchor="end" transform="translate(97.7 121.34)"><tspan> 1.2x10</tspan><tspan dy="-6" font-size="9.6">9</tspan></text></g><path fill="none" stroke="#1F2430" stroke-dasharray="5,8" stroke-width="2" d="M106.09 63.01h468.73" class="gridline" color="#000"/><g fill="none" stroke="currentColor" color="#000"><path stroke="#E6EDF3" d="M106.09 63.01h9m459.73 0h-9"/><text fill="#E6EDF3" stroke="none" font-family="Arial" font-size="12" text-anchor="end" transform="translate(97.7 66.91)"><tspan> 1.4x10</tspan><tspan dy="-6" font-size="9.6">9</tspan></text></g><g fill="none" stroke="currentColor" color="#000"><path stroke="#E6EDF3" d="M184.21 444v-9"/><text fill="#E6EDF3" stroke="none" font-family="Arial" font-size="12" text-anchor="middle" transform="translate(184.21 465.9)"><tspan>270 degrees</tspan></text></g><g fill="none" stroke="currentColor" color="#000"><path stroke="#E6EDF3" d="M262.33 444v-9"/><text fill="#E6EDF3" stroke="none" font-family="Arial" font-size="12" text-anchor="middle" transform="translate(262.33 465.9)"><tspan>180 degrees</tspan></text></g><g fill="none" stroke="currentColor" color="#000"><path stroke="#E6EDF3" d="M340.46 444v-9"/><text fill="#E6EDF3" stroke="none" font-family="Arial" font-size="12" text-anchor="middle" transform="translate(340.46 465.9)"><tspan>90 degrees</tspan></text></g><g fill="none" stroke="currentColor" color="#000"><path stroke="#E6EDF3" d="M418.58 444v-9"/><text fill="#E6EDF3" stroke="none" font-family="Arial" font-size="12" text-anchor="middle" transform="translate(418.58 465.9)"><tspan>flip h</tspan></text></g><g fill="none" stroke="currentColor" color="#000"><path stroke="#E6EDF3" d="M496.7 444v-9"/><text fill="#E6EDF3" stroke="none" font-family="Arial" font-size="12" text-anchor="middle" transform="translate(496.7 465.9)"><tspan>flip v</tspan></text></g><path fill="none" stroke="#E6EDF3" d="M106.09 63.01V444h468.73V63.01H106.09Z" color="#000"/><text fill="#E6EDF3" color="#000" font-family="Verdana" font-size="18" text-anchor="middle" transform="rotate(-90 137.32 116.19)"><tspan>cycles</tspan></text><text fill="#E6EDF3" stroke-width="2" color="#000" font-family="Verdana" font-size="14" text-anchor="end" transform="translate(498.69 87.06)"><tspan>fimg</tspan></text><g fill="none" stroke="currentColor" stroke-width="2" color="#000"><path fill="#73D0FF" stroke="none" d="M508.48 87.76h48.16v-10.5h-48.16z" shape-rendering="crispEdges"/><path stroke="#1A1F29" d="M508.48 87.76h48.16v-10.5h-48.16v10.5Z"/></g><g fill="none" stroke="currentColor" stroke-width="2" color="#000"><path fill="#73D0FF" stroke="none" d="M158.17 444h26.05V215.73h-26.05z" shape-rendering="crispEdges"/><path stroke="#1A1F29" d="M158.17 444V215.74h26.04V444h-26.04Z"/></g><g fill="none" stroke="currentColor" stroke-width="2" color="#000"><path fill="#73D0FF" stroke="none" d="M236.29 444h26.05V266.61h-26.05z" shape-rendering="crispEdges"/><path stroke="#1A1F29" d="M236.29 444V266.62h26.04V444h-26.04Z"/></g><g fill="none" stroke="currentColor" stroke-width="2" color="#000"><path fill="#73D0FF" stroke="none" d="M314.41 444h26.06V171.61h-26.06z" shape-rendering="crispEdges"/><path stroke="#1A1F29" d="M314.41 444V171.62h26.05V444h-26.05Z"/></g><g fill="none" stroke="currentColor" stroke-width="2" color="#000"><path fill="#73D0FF" stroke="none" d="M392.54 444h26.05V298.25h-26.05z" shape-rendering="crispEdges"/><path stroke="#1A1F29" d="M392.54 444V298.26h26.04V444h-26.04Z"/></g><g fill="none" stroke="currentColor" stroke-width="2" color="#000"><path fill="#73D0FF" stroke="none" d="M470.66 444h26.05V298.25h-26.05z" shape-rendering="crispEdges"/><path stroke="#1A1F29" d="M470.66 444V298.26h26.04V444h-26.04Z"/></g><text fill="#E6EDF3" stroke-width="2" color="#000" font-family="Verdana" font-size="14" text-anchor="end" transform="translate(498.69 108.06)"><tspan>image</tspan></text><g fill="none" stroke="currentColor" stroke-width="2" color="#000"><path fill="#FFD173" stroke="none" d="M508.48 108.76h48.16v-10.5h-48.16z" shape-rendering="crispEdges"/><path stroke="#1A1F29" d="M508.48 108.76h48.16v-10.5h-48.16v10.5Z"/></g><g fill="none" stroke="currentColor" stroke-width="2" color="#000"><path fill="#FFD173" stroke="none" d="M184.21 444h26.05V99.05h-26.05z" shape-rendering="crispEdges"/><path stroke="#1A1F29" d="M184.21 444V99.06h26.04V444h-26.04Z"/></g><g fill="none" stroke="currentColor" stroke-width="2" color="#000"><path fill="#FFD173" stroke="none" d="M262.33 444h26.05V138.09h-26.05z" shape-rendering="crispEdges"/><path stroke="#1A1F29" d="M262.33 444V138.1h26.04V444h-26.04Z"/></g><g fill="none" stroke="currentColor" stroke-width="2" color="#000"><path fill="#FFD173" stroke="none" d="M340.46 444h26.05V131.05h-26.05z" shape-rendering="crispEdges"/><path stroke="#1A1F29" d="M340.46 444V131.06h26.04V444h-26.04Z"/></g><g fill="none" stroke="currentColor" stroke-width="2" color="#000"><path fill="#FFD173" stroke="none" d="M418.58 444h26.05V138.1h-26.05z" shape-rendering="crispEdges"/><path stroke="#1A1F29" d="M418.58 444V138.11h26.04V444h-26.04Z"/></g><g fill="none" stroke="currentColor" stroke-width="2" color="#000"><path fill="#FFD173" stroke="none" d="M496.7 444h26.05V162.09H496.7z" shape-rendering="crispEdges"/><path stroke="#1A1F29" d="M496.7 444V162.1h26.04V444H496.7Z"/></g><path fill="none" stroke="#E6EDF3" d="M106.09 63.01V444h468.73V63.01H106.09Z" color="#000"/><text fill="#E6EDF3" color="#000" font-family="Verdana" font-size="18" text-anchor="middle" transform="translate(340.45 32.86)"><tspan>affine</tspan></text></svg>