<svg xmlns="http://www.w3.org/2000/svg" width="600" height="480"><path fill="#fff" d="M0 0h600v480H0z"/><g fill="none" stroke="currentColor" color="#000"><path stroke="#000" d="M106.09 444h9m459.73 0h-9"/><text fill="#000" stroke="none" font-family="Arial" font-size="12" text-anchor="end" transform="translate(97.7 447.9)"><tspan> 0</tspan></text></g><g fill="none" stroke="currentColor" color="#000"><path stroke="#000" d="M106.09 389.57h9m459.73 0h-9"/><text fill="#000" stroke="none" font-family="Arial" font-size="12" text-anchor="end" transform="translate(97.7 393.47)"><tspan> 2x10</tspan><tspan dy="-6" font-size="9.6">8</tspan></text></g><g fill="none" stroke="currentColor" color="#000"><path stroke="#000" d="M106.09 335.15h9m459.73 0h-9"/><text fill="#000" stroke="none" font-family="Arial" font-size="12" text-anchor="end" transform="translate(97.7 339.05)"><tspan> 4x10</tspan><tspan dy="-6" font-size="9.6">8</tspan></text></g><g fill="none" stroke="currentColor" color="#000"><path stroke="#000" d="M106.09 280.72h9m459.73 0h-9"/><text fill="#000" stroke="none" font-family="Arial" font-size="12" text-anchor="end" transform="translate(97.7 284.62)"><tspan> 6x10</tspan><tspan dy="-6" font-size="9.6">8</tspan></text></g><g fill="none" stroke="currentColor" color="#000"><path stroke="#000" d="M106.09 226.29h9m459.73 0h-9"/><text fill="#000" stroke="none" font-family="Arial" font-size="12" text-anchor="end" transform="translate(97.7 230.19)"><tspan> 8x10</tspan><tspan dy="-6" font-size="9.6">8</tspan></text></g><g fill="none" stroke="currentColor" color="#000"><path stroke="#000" d="M106.09 171.86h9m459.73 0h-9"/><text fill="#000" stroke="none" font-family="Arial" font-size="12" text-anchor="end" transform="translate(97.7 175.76)"><tspan> 1x10</tspan><tspan dy="-6" font-size="9.6">9</tspan></text></g><g fill="none" stroke="currentColor" color="#000"><path stroke="#000" d="M106.09 117.44h9m459.73 0h-9"/><text fill="#000" stroke="none" font-family="Arial" font-size="12" text-anchor="end" transform="translate(97.7 121.34)"><tspan> 1.2x10</tspan><tspan dy="-6" font-size="9.6">9</tspan></text></g><g fill="none" stroke="currentColor" color="#000"><path stroke="#000" d="M106.09 63.01h9m459.73 0h-9"/><text fill="#000" stroke="none" font-family="Arial" font-size="12" text-anchor="end" transform="translate(97.7 66.91)"><tspan> 1.4x10</tspan><tspan dy="-6" font-size="9.6">9</tspan></text></g><g fill="none" stroke="currentColor" color="#000"><path stroke="#000" d="M184.21 444v-9m0-371.99v9"/><text fill="#000" stroke="none" font-family="Arial" font-size="12" text-anchor="middle" transform="translate(184.21 465.9)"><tspan>270 degrees</tspan></text></g><g fill="none" stroke="currentColor" color="#000"><path stroke="#000" d="M262.33 444v-9m0-371.99v9"/><text fill="#000" stroke="none" font-family="Arial" font-size="12" text-anchor="middle" transform="translate(262.33 465.9)"><tspan>180 degrees</tspan></text></g><g fill="none" stroke="currentColor" color="#000"><path stroke="#000" d="M340.46 444v-9m0-371.99v9"/><text fill="#000" stroke="none" font-family="Arial" font-size="12" text-anchor="middle" transform="translate(340.46 465.9)"><tspan>90 degrees</tspan></text></g><g fill="none" stroke="currentColor" color="#000"><path stroke="#000" d="M418.58 444v-9m0-371.99v9"/><text fill="#000" stroke="none" font-family="Arial" font-size="12" text-anchor="middle" transform="translate(418.58 465.9)"><tspan>flip h</tspan></text></g><g fill="none" stroke="currentColor" color="#000"><path stroke="#000" d="M496.7 444v-9m0-371.99v9"/><text fill="#000" stroke="none" font-family="Arial" font-size="12" text-anchor="middle" transform="translate(496.7 465.9)"><tspan>flip v</tspan></text></g><path fill="none" stroke="#000" d="M106.09 63.01V444h468.73V63.01H106.09Z" color="#000"/><text color="#000" font-family="Arial" font-size="12" text-anchor="middle" transform="rotate(-90 136.345 117.165)"><tspan>cycles</tspan></text><text color="#000" font-family="Arial" font-size="12" text-anchor="end" transform="translate(507.09 84.91)"><tspan>fimg</tspan></text><g fill="none" stroke="currentColor" color="#000"><path fill="#9400D3" stroke="none" d="M515.48 85.51h42.56v-9h-42.56z" shape-rendering="crispEdges"/><path stroke="#000" d="M515.48 85.51h42.56v-9h-42.56v9Z"/></g><g fill="none" stroke="currentColor" color="#000"><path fill="#9400D3" stroke="none" d="M158.17 444h26.05V217.77h-26.05z" shape-rendering="crispEdges"/><path stroke="#000" d="M158.17 444V217.78h26.04V444h-26.04Z"/></g><g fill="none" stroke="currentColor" color="#000"><path fill="#9400D3" stroke="none" d="M236.29 444h26.05V296.63h-26.05z" shape-rendering="crispEdges"/><path stroke="#000" d="M236.29 444V296.64h26.04V444h-26.04Z"/></g><g fill="none" stroke="currentColor" color="#000"><path fill="#9400D3" stroke="none" d="M314.41 444h26.06V165.65h-26.06z" shape-rendering="crispEdges"/><path stroke="#000" d="M314.41 444V165.66h26.05V444h-26.05Z"/></g><g fill="none" stroke="currentColor" color="#000"><path fill="#9400D3" stroke="none" d="M392.54 444h26.05V310.26h-26.05z" shape-rendering="crispEdges"/><path stroke="#000" d="M392.54 444V310.27h26.04V444h-26.04Z"/></g><g fill="none" stroke="currentColor" color="#000"><path fill="#9400D3" stroke="none" d="M470.66 444h26.05V310.26h-26.05z" shape-rendering="crispEdges"/><path stroke="#000" d="M470.66 444V310.27h26.04V444h-26.04Z"/></g><text color="#000" font-family="Arial" font-size="12" text-anchor="end" transform="translate(507.09 102.91)"><tspan>imgproc</tspan></text><g fill="none" stroke="currentColor" color="#000"><path fill="#009E73" stroke="none" d="M515.48 103.51h42.56v-9h-42.56z" shape-rendering="crispEdges"/><path stroke="#000" d="M515.48 103.51h42.56v-9h-42.56v9Z"/></g><g fill="none" stroke="currentColor" color="#000"><path fill="#009E73" stroke="none" d="M184.21 444h26.05V83.03h-26.05z" shape-rendering="crispEdges"/><path stroke="#000" d="M184.21 444V83.04h26.04V444h-26.04Z"/></g><g fill="none" stroke="currentColor" color="#000"><path fill="#009E73" stroke="none" d="M262.33 444h26.05V122.08h-26.05z" shape-rendering="crispEdges"/><path stroke="#000" d="M262.33 444V122.09h26.04V444h-26.04Z"/></g><g fill="none" stroke="currentColor" color="#000"><path fill="#009E73" stroke="none" d="M340.46 444h26.05V123.05h-26.05z" shape-rendering="crispEdges"/><path stroke="#000" d="M340.46 444V123.06h26.04V444h-26.04Z"/></g><g fill="none" stroke="currentColor" color="#000"><path fill="#009E73" stroke="none" d="M418.58 444h26.05V122.09h-26.05z" shape-rendering="crispEdges"/><path stroke="#000" d="M418.58 444V122.1h26.04V444h-26.04Z"/></g><g fill="none" stroke="currentColor" color="#000"><path fill="#009E73" stroke="none" d="M496.7 444h26.05V146.09H496.7z" shape-rendering="crispEdges"/><path stroke="#000" d="M496.7 444V146.1h26.04V444H496.7Z"/></g><path fill="none" stroke="#000" d="M106.09 63.01V444h468.73V63.01H106.09Z" color="#000"/><text color="#000" font-family="Verdana" font-size="18" text-anchor="middle" transform="translate(340.45 32.86)"><tspan>affine</tspan></text></svg>