<svg xmlns="http://www.w3.org/2000/svg" width="400" height="480"><path fill="#fff" d="M0 0h400v480H0z"/><g fill="none" stroke="currentColor" color="#000"><path stroke="#000" d="M89.31 444h9m276.51 0h-9"/><text fill="#000" stroke="none" font-family="Arial" font-size="12" text-anchor="end" transform="translate(80.92 447.9)"><tspan> 0</tspan></text></g><g fill="none" stroke="currentColor" color="#000"><path stroke="#000" d="M89.31 396.38h9m276.51 0h-9"/><text fill="#000" stroke="none" font-family="Arial" font-size="12" text-anchor="end" transform="translate(80.92 400.28)"><tspan> 1x10</tspan><tspan dy="-6" font-size="9.6">9</tspan></text></g><g fill="none" stroke="currentColor" color="#000"><path stroke="#000" d="M89.31 348.75h9m276.51 0h-9"/><text fill="#000" stroke="none" font-family="Arial" font-size="12" text-anchor="end" transform="translate(80.92 352.65)"><tspan> 2x10</tspan><tspan dy="-6" font-size="9.6">9</tspan></text></g><g fill="none" stroke="currentColor" color="#000"><path stroke="#000" d="M89.31 301.13h9m276.51 0h-9"/><text fill="#000" stroke="none" font-family="Arial" font-size="12" text-anchor="end" transform="translate(80.92 305.03)"><tspan> 3x10</tspan><tspan dy="-6" font-size="9.6">9</tspan></text></g><g fill="none" stroke="currentColor" color="#000"><path stroke="#000" d="M89.31 253.5h9m276.51 0h-9"/><text fill="#000" stroke="none" font-family="Arial" font-size="12" text-anchor="end" transform="translate(80.92 257.4)"><tspan> 4x10</tspan><tspan dy="-6" font-size="9.6">9</tspan></text></g><g fill="none" stroke="currentColor" color="#000"><path stroke="#000" d="M89.31 205.88h9m276.51 0h-9"/><text fill="#000" stroke="none" font-family="Arial" font-size="12" text-anchor="end" transform="translate(80.92 209.78)"><tspan> 5x10</tspan><tspan dy="-6" font-size="9.6">9</tspan></text></g><g fill="none" stroke="currentColor" color="#000"><path stroke="#000" d="M89.31 158.26h9m276.51 0h-9"/><text fill="#000" stroke="none" font-family="Arial" font-size="12" text-anchor="end" transform="translate(80.92 162.16)"><tspan> 6x10</tspan><tspan dy="-6" font-size="9.6">9</tspan></text></g><g fill="none" stroke="currentColor" color="#000"><path stroke="#000" d="M89.31 110.63h9m276.51 0h-9"/><text fill="#000" stroke="none" font-family="Arial" font-size="12" text-anchor="end" transform="translate(80.92 114.53)"><tspan> 7x10</tspan><tspan dy="-6" font-size="9.6">9</tspan></text></g><g fill="none" stroke="currentColor" color="#000"><path stroke="#000" d="M89.31 63.01h9m276.51 0h-9"/><text fill="#000" stroke="none" font-family="Arial" font-size="12" text-anchor="end" transform="translate(80.92 66.91)"><tspan> 8x10</tspan><tspan dy="-6" font-size="9.6">9</tspan></text></g><g fill="none" stroke="currentColor" color="#000"><path stroke="#000" d="M89.31 444v-9m0-371.99v9"/><text fill="#000" stroke="none" font-family="Arial" font-size="12" text-anchor="middle" transform="translate(89.31 465.9)"><tspan> </tspan></text></g><g fill="none" stroke="currentColor" color="#000"><path stroke="#000" d="M160.69 444v-9m0-371.99v9"/><text fill="#000" stroke="none" font-family="Arial" font-size="12" text-anchor="middle" transform="translate(160.69 465.9)"><tspan> </tspan></text></g><g fill="none" stroke="currentColor" color="#000"><path stroke="#000" d="M232.07 444v-9m0-371.99v9"/><text fill="#000" stroke="none" font-family="Arial" font-size="12" text-anchor="middle" transform="translate(232.07 465.9)"><tspan> </tspan></text></g><g fill="none" stroke="currentColor" color="#000"><path stroke="#000" d="M303.44 444v-9m0-371.99v9"/><text fill="#000" stroke="none" font-family="Arial" font-size="12" text-anchor="middle" transform="translate(303.44 465.9)"><tspan> </tspan></text></g><g fill="none" stroke="currentColor" color="#000"><path stroke="#000" d="M374.82 444v-9m0-371.99v9"/><text fill="#000" stroke="none" font-family="Arial" font-size="12" text-anchor="middle" transform="translate(374.82 465.9)"><tspan> </tspan></text></g><path fill="none" stroke="#000" d="M89.31 63.01V444h285.51V63.01H89.31Z" color="#000"/><text color="#000" font-family="Arial" font-size="12" text-anchor="middle" transform="rotate(-90 136.345 117.165)"><tspan>cycles</tspan></text><text color="#000" font-family="Arial" font-size="12" text-anchor="end" transform="translate(307.09 84.91)"><tspan>fimg</tspan></text><g fill="none" stroke="currentColor" color="#000"><path fill="#9400D3" stroke="none" d="M315.48 85.51h42.56v-9h-42.56z" shape-rendering="crispEdges"/><path stroke="#000" d="M315.48 85.51h42.56v-9h-42.56v9Z"/></g><g fill="none" stroke="currentColor" color="#000"><path fill="#9400D3" stroke="none" d="M174.96 444h28.56v-32.14h-28.56z" shape-rendering="crispEdges"/><path stroke="#000" d="M174.96 444v-32.13h28.55V444h-28.55Z"/></g><text color="#000" font-family="Arial" font-size="12" text-anchor="end" transform="translate(307.09 102.91)"><tspan>imgproc</tspan></text><g fill="none" stroke="currentColor" color="#000"><path fill="#009E73" stroke="none" d="M315.48 103.51h42.56v-9h-42.56z" shape-rendering="crispEdges"/><path stroke="#000" d="M315.48 103.51h42.56v-9h-42.56v9Z"/></g><g fill="none" stroke="currentColor" color="#000"><path fill="#009E73" stroke="none" d="M203.51 444h28.57V136.74h-28.57z" shape-rendering="crispEdges"/><path stroke="#000" d="M203.51 444V136.75h28.56V444h-28.56Z"/></g><text color="#000" font-family="Arial" font-size="12" text-anchor="end" transform="translate(307.09 120.91)"><tspan>image</tspan></text><g fill="none" stroke="currentColor" color="#000"><path fill="#56B4E9" stroke="none" d="M315.48 121.51h42.56v-9h-42.56z" shape-rendering="crispEdges"/><path stroke="#000" d="M315.48 121.51h42.56v-9h-42.56v9Z"/></g><g fill="none" stroke="currentColor" color="#000"><path fill="#56B4E9" stroke="none" d="M232.07 444h28.56V96.66h-28.56z" shape-rendering="crispEdges"/><path stroke="#000" d="M232.07 444V96.67h28.55V444h-28.55Z"/></g><text color="#000" font-family="Arial" font-size="12" text-anchor="end" transform="translate(307.09 138.91)"><tspan>blud</tspan></text><g fill="none" stroke="currentColor" color="#000"><path fill="#E69F00" stroke="none" d="M315.48 139.51h42.56v-9h-42.56z" shape-rendering="crispEdges"/><path stroke="#000" d="M315.48 139.51h42.56v-9h-42.56v9Z"/></g><g fill="none" stroke="currentColor" color="#000"><path fill="#E69F00" stroke="none" d="M260.62 444h28.56v-32.28h-28.56z" shape-rendering="crispEdges"/><path stroke="#000" d="M260.62 444v-32.27h28.55V444h-28.55Z"/></g><path fill="none" stroke="#000" d="M89.31 63.01V444h285.51V63.01H89.31Z" color="#000"/><text color="#000" font-family="Verdana" font-size="18" text-anchor="middle" transform="translate(232.06 32.86)"><tspan>gaussian blur</tspan></text></svg>