<svg xmlns="http://www.w3.org/2000/svg" width="480" height="480"><path fill="#0d1117" d="M0 0h480v480H0z"/><g fill="none" stroke="currentColor" stroke-width="3" color="#000"><path stroke="#E6EDF3" d="M89.31 444h9m356.51 0h-9"/><text fill="#E6EDF3" stroke="none" font-family="Arial" font-size="12" text-anchor="end" transform="translate(80.92 447.9)"><tspan> 0</tspan></text></g><g fill="none" stroke="currentColor" stroke-width="3" color="#000"><path stroke="#E6EDF3" d="M89.31 396.38h9m356.51 0h-9"/><text fill="#E6EDF3" stroke="none" font-family="Arial" font-size="12" text-anchor="end" transform="translate(80.92 400.28)"><tspan> 1x10</tspan><tspan dy="-6" font-size="9.6">9</tspan></text></g><g fill="none" stroke="currentColor" stroke-width="3" color="#000"><path stroke="#E6EDF3" d="M89.31 348.75h9m356.51 0h-9"/><text fill="#E6EDF3" stroke="none" font-family="Arial" font-size="12" text-anchor="end" transform="translate(80.92 352.65)"><tspan> 2x10</tspan><tspan dy="-6" font-size="9.6">9</tspan></text></g><g fill="none" stroke="currentColor" stroke-width="3" color="#000"><path stroke="#E6EDF3" d="M89.31 301.13h9m356.51 0h-9"/><text fill="#E6EDF3" stroke="none" font-family="Arial" font-size="12" text-anchor="end" transform="translate(80.92 305.03)"><tspan> 3x10</tspan><tspan dy="-6" font-size="9.6">9</tspan></text></g><g fill="none" stroke="currentColor" stroke-width="3" color="#000"><path stroke="#E6EDF3" d="M89.31 253.5h9m356.51 0h-9"/><text fill="#E6EDF3" stroke="none" font-family="Arial" font-size="12" text-anchor="end" transform="translate(80.92 257.4)"><tspan> 4x10</tspan><tspan dy="-6" font-size="9.6">9</tspan></text></g><g fill="none" stroke="currentColor" stroke-width="3" color="#000"><path stroke="#E6EDF3" d="M89.31 205.88h9m356.51 0h-9"/><text fill="#E6EDF3" stroke="none" font-family="Arial" font-size="12" text-anchor="end" transform="translate(80.92 209.78)"><tspan> 5x10</tspan><tspan dy="-6" font-size="9.6">9</tspan></text></g><g fill="none" stroke="currentColor" stroke-width="3" color="#000"><path stroke="#E6EDF3" d="M89.31 158.26h9m356.51 0h-9"/><text fill="#E6EDF3" stroke="none" font-family="Arial" font-size="12" text-anchor="end" transform="translate(80.92 162.16)"><tspan> 6x10</tspan><tspan dy="-6" font-size="9.6">9</tspan></text></g><g fill="none" stroke="currentColor" stroke-width="3" color="#000"><path stroke="#E6EDF3" d="M89.31 110.63h9m356.51 0h-9"/><text fill="#E6EDF3" stroke="none" font-family="Arial" font-size="12" text-anchor="end" transform="translate(80.92 114.53)"><tspan> 7x10</tspan><tspan dy="-6" font-size="9.6">9</tspan></text></g><g fill="none" stroke="currentColor" stroke-width="3" color="#000"><path stroke="#E6EDF3" d="M89.31 63.01h9m356.51 0h-9"/><text fill="#E6EDF3" stroke="none" font-family="Arial" font-size="12" text-anchor="end" transform="translate(80.92 66.91)"><tspan> 8x10</tspan><tspan dy="-6" font-size="9.6">9</tspan></text></g><g fill="none" stroke="currentColor" stroke-width="3" color="#000"><path stroke="#E6EDF3" d="M89.31 444v-9m0-371.99v9"/><text fill="#E6EDF3" stroke="none" font-family="Arial" font-size="12" text-anchor="middle" transform="translate(89.31 465.9)"><tspan> </tspan></text></g><g fill="none" stroke="currentColor" stroke-width="3" color="#000"><path stroke="#E6EDF3" d="M180.69 444v-9m0-371.99v9"/><text fill="#E6EDF3" stroke="none" font-family="Arial" font-size="12" text-anchor="middle" transform="translate(180.69 465.9)"><tspan> </tspan></text></g><g fill="none" stroke="currentColor" stroke-width="3" color="#000"><path stroke="#E6EDF3" d="M272.07 444v-9m0-371.99v9"/><text fill="#E6EDF3" stroke="none" font-family="Arial" font-size="12" text-anchor="middle" transform="translate(272.07 465.9)"><tspan> </tspan></text></g><g fill="none" stroke="currentColor" stroke-width="3" color="#000"><path stroke="#E6EDF3" d="M363.44 444v-9m0-371.99v9"/><text fill="#E6EDF3" stroke="none" font-family="Arial" font-size="12" text-anchor="middle" transform="translate(363.44 465.9)"><tspan> </tspan></text></g><g fill="none" stroke="currentColor" stroke-width="3" color="#000"><path stroke="#E6EDF3" d="M454.82 444v-9m0-371.99v9"/><text fill="#E6EDF3" stroke="none" font-family="Arial" font-size="12" text-anchor="middle" transform="translate(454.82 465.9)"><tspan> </tspan></text></g><path fill="none" stroke="#E6EDF3" stroke-width="3" d="M89.31 63.01V444h365.51V63.01H89.31Z" color="#000"/><text fill="#E6EDF3" stroke-width="3" color="#000" font-family="Verdana" font-size="18" text-anchor="middle" transform="rotate(-90 137.32 116.19)"><tspan>cycles</tspan></text><text fill="#E6EDF3" stroke-width="2" color="#000" font-family="Verdana" font-size="14" text-anchor="end" transform="translate(378.69 87.06)"><tspan>fimg</tspan></text><g fill="none" stroke="currentColor" stroke-width="2" color="#000"><path fill="#73D0FF" stroke="none" d="M388.48 87.76h48.16v-10.5h-48.16z" shape-rendering="crispEdges"/><path stroke="#1A1F29" d="M388.48 87.76h48.16v-10.5h-48.16v10.5Z"/></g><g fill="none" stroke="currentColor" stroke-width="2" color="#000"><path fill="#73D0FF" stroke="none" d="M180.69 444h45.7v-32.14h-45.7z" shape-rendering="crispEdges"/><path stroke="#1A1F29" d="M180.69 444v-32.13h45.69V444h-45.69Z"/></g><text fill="#E6EDF3" stroke-width="2" color="#000" font-family="Verdana" font-size="14" text-anchor="end" transform="translate(378.69 108.06)"><tspan>imgproc</tspan></text><g fill="none" stroke="currentColor" stroke-width="2" color="#000"><path fill="#FFD173" stroke="none" d="M388.48 108.76h48.16v-10.5h-48.16z" shape-rendering="crispEdges"/><path stroke="#1A1F29" d="M388.48 108.76h48.16v-10.5h-48.16v10.5Z"/></g><g fill="none" stroke="currentColor" stroke-width="2" color="#000"><path fill="#FFD173" stroke="none" d="M226.38 444h45.7V136.74h-45.7z" shape-rendering="crispEdges"/><path stroke="#1A1F29" d="M226.38 444V136.75h45.69V444h-45.69Z"/></g><text fill="#E6EDF3" stroke-width="2" color="#000" font-family="Verdana" font-size="14" text-anchor="end" transform="translate(378.69 129.06)"><tspan>image</tspan></text><g fill="none" stroke="currentColor" stroke-width="2" color="#000"><path fill="#D5FF80" stroke="none" d="M388.48 129.76h48.16v-10.5h-48.16z" shape-rendering="crispEdges"/><path stroke="#1A1F29" d="M388.48 129.76h48.16v-10.5h-48.16v10.5Z"/></g><g fill="none" stroke="currentColor" stroke-width="2" color="#000"><path fill="#D5FF80" stroke="none" d="M272.07 444h45.69V96.66h-45.69z" shape-rendering="crispEdges"/><path stroke="#1A1F29" d="M272.07 444V96.67h45.68V444h-45.68Z"/></g><text fill="#E6EDF3" stroke-width="2" color="#000" font-family="Verdana" font-size="14" text-anchor="end" transform="translate(378.69 150.06)"><tspan>blud</tspan></text><g fill="none" stroke="currentColor" stroke-width="2" color="#000"><path fill="#F27983" stroke="none" d="M388.48 150.76h48.16v-10.5h-48.16z" shape-rendering="crispEdges"/><path stroke="#1A1F29" d="M388.48 150.76h48.16v-10.5h-48.16v10.5Z"/></g><g fill="none" stroke="currentColor" stroke-width="2" color="#000"><path fill="#F27983" stroke="none" d="M317.75 444h45.7v-32.28h-45.7z" shape-rendering="crispEdges"/><path stroke="#1A1F29" d="M317.75 444v-32.27h45.69V444h-45.69Z"/></g><path fill="none" stroke="#E6EDF3" stroke-width="3" d="M89.31 63.01V444h365.51V63.01H89.31Z" color="#000"/><text fill="#E6EDF3" stroke-width="3" color="#000" font-family="Verdana" font-size="18" text-anchor="middle" transform="translate(272.06 32.86)"><tspan>gaussian blur</tspan></text></svg>