<svg xmlns="http://www.w3.org/2000/svg" width="600" height="480"><path fill="#0d1117" d="M0 0h600v480H0z"/><path fill="none" stroke="#1F2430" stroke-dasharray="5,8" stroke-width="2" d="M89.31 463.22h485.51" class="gridline" color="#000"/><g fill="none" stroke="currentColor" color="#000"><path stroke="#E6EDF3" d="M89.31 463.22h9m476.51 0h-9"/><text fill="#E6EDF3" stroke="none" font-family="Arial" font-size="12" text-anchor="end" transform="translate(80.92 467.12)"><tspan> 0</tspan></text></g><path fill="none" stroke="#1F2430" stroke-dasharray="5,8" stroke-width="2" d="M89.31 406.05h485.51" class="gridline" color="#000"/><g fill="none" stroke="currentColor" color="#000"><path stroke="#E6EDF3" d="M89.31 406.05h9m476.51 0h-9"/><text fill="#E6EDF3" stroke="none" font-family="Arial" font-size="12" text-anchor="end" transform="translate(80.92 409.95)"><tspan> 1x10</tspan><tspan dy="-6" font-size="9.6">7</tspan></text></g><path fill="none" stroke="#1F2430" stroke-dasharray="5,8" stroke-width="2" d="M89.31 348.87h485.51" class="gridline" color="#000"/><g fill="none" stroke="currentColor" color="#000"><path stroke="#E6EDF3" d="M89.31 348.87h9m476.51 0h-9"/><text fill="#E6EDF3" stroke="none" font-family="Arial" font-size="12" text-anchor="end" transform="translate(80.92 352.77)"><tspan> 2x10</tspan><tspan dy="-6" font-size="9.6">7</tspan></text></g><path fill="none" stroke="#1F2430" stroke-dasharray="5,8" stroke-width="2" d="M89.31 291.7h485.51" class="gridline" color="#000"/><g fill="none" stroke="currentColor" color="#000"><path stroke="#E6EDF3" d="M89.31 291.7h9m476.51 0h-9"/><text fill="#E6EDF3" stroke="none" font-family="Arial" font-size="12" text-anchor="end" transform="translate(80.92 295.6)"><tspan> 3x10</tspan><tspan dy="-6" font-size="9.6">7</tspan></text></g><path fill="none" stroke="#1F2430" stroke-dasharray="5,8" stroke-width="2" d="M89.31 234.53h485.51" class="gridline" color="#000"/><g fill="none" stroke="currentColor" color="#000"><path stroke="#E6EDF3" d="M89.31 234.53h9m476.51 0h-9"/><text fill="#E6EDF3" stroke="none" font-family="Arial" font-size="12" text-anchor="end" transform="translate(80.92 238.43)"><tspan> 4x10</tspan><tspan dy="-6" font-size="9.6">7</tspan></text></g><path fill="none" stroke="#1F2430" stroke-dasharray="5,8" stroke-width="2" d="M89.31 177.36h485.51" class="gridline" color="#000"/><g fill="none" stroke="currentColor" color="#000"><path stroke="#E6EDF3" d="M89.31 177.36h9m476.51 0h-9"/><text fill="#E6EDF3" stroke="none" font-family="Arial" font-size="12" text-anchor="end" transform="translate(80.92 181.26)"><tspan> 5x10</tspan><tspan dy="-6" font-size="9.6">7</tspan></text></g><path fill="none" stroke="#1F2430" stroke-dasharray="5,8" stroke-width="2" d="M89.31 120.18h485.51" class="gridline" color="#000"/><g fill="none" stroke="currentColor" color="#000"><path stroke="#E6EDF3" d="M89.31 120.18h9m476.51 0h-9"/><text fill="#E6EDF3" stroke="none" font-family="Arial" font-size="12" text-anchor="end" transform="translate(80.92 124.08)"><tspan> 6x10</tspan><tspan dy="-6" font-size="9.6">7</tspan></text></g><path fill="none" stroke="#1F2430" stroke-dasharray="5,8" stroke-width="2" d="M89.31 63.01h485.51" class="gridline" color="#000"/><g fill="none" stroke="currentColor" color="#000"><path stroke="#E6EDF3" d="M89.31 63.01h9m476.51 0h-9"/><text fill="#E6EDF3" stroke="none" font-family="Arial" font-size="12" text-anchor="end" transform="translate(80.92 66.91)"><tspan> 7x10</tspan><tspan dy="-6" font-size="9.6">7</tspan></text></g><path fill="none" stroke="#E6EDF3" d="M89.31 63.01v400.21h485.51V63.01H89.31Z" color="#000"/><text fill="#E6EDF3" color="#000" font-family="Verdana" font-size="18" text-anchor="middle" transform="rotate(-90 142.125 120.995)"><tspan>cycles</tspan></text><text fill="#E6EDF3" stroke-width="2" color="#000" font-family="Verdana" font-size="14" text-anchor="end" transform="translate(498.69 87.06)"><tspan>fimg</tspan></text><g fill="none" stroke="currentColor" stroke-width="2" color="#000"><path fill="#73D0FF" stroke="none" d="M508.48 87.76h48.16v-10.5h-48.16z" shape-rendering="crispEdges"/><path stroke="#1A1F29" d="M508.48 87.76h48.16v-10.5h-48.16v10.5Z"/></g><g fill="none" stroke="currentColor" stroke-width="2" color="#000"><path fill="#73D0FF" stroke="none" d="M154.04 463.22h32.38v-85.8h-32.38z" shape-rendering="crispEdges"/><path stroke="#1A1F29" d="M154.04 463.22v-85.79h32.37v85.79h-32.37Z"/></g><g fill="none" stroke="currentColor" stroke-width="2" color="#000"><path fill="#73D0FF" stroke="none" d="M251.15 463.22h32.37v-73.83h-32.37z" shape-rendering="crispEdges"/><path stroke="#1A1F29" d="M251.15 463.22V389.4h32.36v73.82h-32.36Z"/></g><g fill="none" stroke="currentColor" stroke-width="2" color="#000"><path fill="#73D0FF" stroke="none" d="M348.25 463.22h32.38v-27.53h-32.38z" shape-rendering="crispEdges"/><path stroke="#1A1F29" d="M348.25 463.22V435.7h32.37v27.52h-32.37Z"/></g><g fill="none" stroke="currentColor" stroke-width="2" color="#000"><path fill="#73D0FF" stroke="none" d="M445.35 463.22h32.38v-7.68h-32.38z" shape-rendering="crispEdges"/><path stroke="#1A1F29" d="M445.35 463.22v-7.67h32.37v7.67h-32.37Z"/></g><text fill="#E6EDF3" stroke-width="2" color="#000" font-family="Verdana" font-size="14" text-anchor="end" transform="translate(498.69 108.06)"><tspan>imgproc</tspan></text><g fill="none" stroke="currentColor" stroke-width="2" color="#000"><path fill="#FFD173" stroke="none" d="M508.48 108.76h48.16v-10.5h-48.16z" shape-rendering="crispEdges"/><path stroke="#1A1F29" d="M508.48 108.76h48.16v-10.5h-48.16v10.5Z"/></g><g fill="none" stroke="currentColor" stroke-width="2" color="#000"><path fill="#FFD173" stroke="none" d="M186.41 463.22h32.38V419.1h-32.38z" shape-rendering="crispEdges"/><path stroke="#1A1F29" d="M186.41 463.22v-44.11h32.37v44.11h-32.37Z"/></g><g fill="none" stroke="currentColor" stroke-width="2" color="#000"><path fill="#FFD173" stroke="none" d="M283.51 463.22h32.38V78.9h-32.38z" shape-rendering="crispEdges"/><path stroke="#1A1F29" d="M283.51 463.22V78.91h32.37v384.31h-32.37Z"/></g><g fill="none" stroke="currentColor" stroke-width="2" color="#000"><path fill="#FFD173" stroke="none" d="M380.62 463.22h32.37v-34.43h-32.37z" shape-rendering="crispEdges"/><path stroke="#1A1F29" d="M380.62 463.22V428.8h32.36v34.42h-32.36Z"/></g><g fill="none" stroke="currentColor" stroke-width="2" color="#000"><path fill="#FFD173" stroke="none" d="M477.72 463.22h32.38v-24.96h-32.38z" shape-rendering="crispEdges"/><path stroke="#1A1F29" d="M477.72 463.22v-24.95h32.37v24.95h-32.37Z"/></g><path fill="none" stroke="#E6EDF3" d="M89.31 63.01v400.21h485.51V63.01H89.31Z" color="#000"/><text fill="#E6EDF3" color="#000" font-family="Verdana" font-size="18" text-anchor="middle" transform="translate(332.06 32.86)"><tspan>drawing</tspan></text></svg>