<svg xmlns="http://www.w3.org/2000/svg" width="480" height="480"><path fill="#0d1117" d="M0 0h480v480H0z"/><path fill="none" stroke="#1F2430" stroke-dasharray="5,8" stroke-width="2" d="M114.48 463.22h340.34" class="gridline" color="#000"/><g fill="none" stroke="currentColor" color="#000"><path stroke="#E6EDF3" d="M114.48 463.22h9m331.34 0h-9"/><text fill="#E6EDF3" stroke="none" font-family="Arial" font-size="12" text-anchor="end" transform="translate(106.09 467.12)"><tspan> 0</tspan></text></g><path fill="none" stroke="#1F2430" stroke-dasharray="5,8" stroke-width="2" d="M114.48 396.52h340.34" class="gridline" color="#000"/><g fill="none" stroke="currentColor" color="#000"><path stroke="#E6EDF3" d="M114.48 396.52h9m331.34 0h-9"/><text fill="#E6EDF3" stroke="none" font-family="Arial" font-size="12" text-anchor="end" transform="translate(106.09 400.42)"><tspan> 2x10</tspan><tspan dy="-6" font-size="9.6">9</tspan></text></g><path fill="none" stroke="#1F2430" stroke-dasharray="5,8" stroke-width="2" d="M114.48 329.82h340.34" class="gridline" color="#000"/><g fill="none" stroke="currentColor" color="#000"><path stroke="#E6EDF3" d="M114.48 329.82h9m331.34 0h-9"/><text fill="#E6EDF3" stroke="none" font-family="Arial" font-size="12" text-anchor="end" transform="translate(106.09 333.72)"><tspan> 4x10</tspan><tspan dy="-6" font-size="9.6">9</tspan></text></g><path fill="none" stroke="#1F2430" stroke-dasharray="5,8" stroke-width="2" d="M114.48 263.11h340.34" class="gridline" color="#000"/><g fill="none" stroke="currentColor" color="#000"><path stroke="#E6EDF3" d="M114.48 263.11h9m331.34 0h-9"/><text fill="#E6EDF3" stroke="none" font-family="Arial" font-size="12" text-anchor="end" transform="translate(106.09 267.01)"><tspan> 6x10</tspan><tspan dy="-6" font-size="9.6">9</tspan></text></g><path fill="none" stroke="#1F2430" stroke-dasharray="5,8" stroke-width="2" d="M114.48 196.41h340.34" class="gridline" color="#000"/><g fill="none" stroke="currentColor" color="#000"><path stroke="#E6EDF3" d="M114.48 196.41h9m331.34 0h-9"/><text fill="#E6EDF3" stroke="none" font-family="Arial" font-size="12" text-anchor="end" transform="translate(106.09 200.31)"><tspan> 8x10</tspan><tspan dy="-6" font-size="9.6">9</tspan></text></g><path fill="none" stroke="#1F2430" stroke-dasharray="5,8" stroke-width="2" d="M114.48 129.71h205.47m126.48 0h8.39" class="gridline" color="#000"/><g fill="none" stroke="currentColor" color="#000"><path stroke="#E6EDF3" d="M114.48 129.71h9m331.34 0h-9"/><text fill="#E6EDF3" stroke="none" font-family="Arial" font-size="12" text-anchor="end" transform="translate(106.09 133.61)"><tspan> 1x10</tspan><tspan dy="-6" font-size="9.6">10</tspan></text></g><path fill="none" stroke="#1F2430" stroke-dasharray="5,8" stroke-width="2" d="M114.48 63.01h340.34" class="gridline" color="#000"/><g fill="none" stroke="currentColor" color="#000"><path stroke="#E6EDF3" d="M114.48 63.01h9m331.34 0h-9"/><text fill="#E6EDF3" stroke="none" font-family="Arial" font-size="12" text-anchor="end" transform="translate(106.09 66.91)"><tspan> 1.2x10</tspan><tspan dy="-6" font-size="9.6">10</tspan></text></g><path fill="none" stroke="#E6EDF3" d="M114.48 63.01v400.21h340.34V63.01H114.48Z" color="#000"/><text fill="#E6EDF3" color="#000" font-family="Verdana" font-size="18" text-anchor="middle" transform="rotate(-90 142.125 120.995)"><tspan>cycles</tspan></text><text fill="#E6EDF3" stroke-width="2" color="#000" font-family="Verdana" font-size="14" text-anchor="end" transform="translate(378.69 87.06)"><tspan>fimg</tspan></text><g fill="none" stroke="currentColor" stroke-width="2" color="#000"><path fill="#73D0FF" stroke="none" d="M388.48 87.76h48.16v-10.5h-48.16z" shape-rendering="crispEdges"/><path stroke="#1A1F29" d="M388.48 87.76h48.16v-10.5h-48.16v10.5Z"/></g><g fill="none" stroke="currentColor" stroke-width="2" color="#000"><path fill="#73D0FF" stroke="none" d="M167.66 463.22h21.28v-58.19h-21.28z" shape-rendering="crispEdges"/><path stroke="#1A1F29" d="M167.66 463.22v-58.18h21.27v58.18h-21.27Z"/></g><g fill="none" stroke="currentColor" stroke-width="2" color="#000"><path fill="#73D0FF" stroke="none" d="M252.74 463.22h21.28v-47.38h-21.28z" shape-rendering="crispEdges"/><path stroke="#1A1F29" d="M252.74 463.22v-47.37h21.27v47.37h-21.27Z"/></g><g fill="none" stroke="currentColor" stroke-width="2" color="#000"><path fill="#73D0FF" stroke="none" d="M337.83 463.22h21.28v-8.96h-21.28z" shape-rendering="crispEdges"/><path stroke="#1A1F29" d="M337.83 463.22v-8.95h21.27v8.95h-21.27Z"/></g><text fill="#E6EDF3" stroke-width="2" color="#000" font-family="Verdana" font-size="14" text-anchor="end" transform="translate(378.69 108.06)"><tspan>image</tspan></text><g fill="none" stroke="currentColor" stroke-width="2" color="#000"><path fill="#FFD173" stroke="none" d="M388.48 108.76h48.16v-10.5h-48.16z" shape-rendering="crispEdges"/><path stroke="#1A1F29" d="M388.48 108.76h48.16v-10.5h-48.16v10.5Z"/></g><g fill="none" stroke="currentColor" stroke-width="2" color="#000"><path fill="#FFD173" stroke="none" d="M188.93 463.22h21.28V89.88h-21.28z" shape-rendering="crispEdges"/><path stroke="#1A1F29" d="M188.93 463.22V89.89h21.27v373.33h-21.27Z"/></g><g fill="none" stroke="currentColor" stroke-width="2" color="#000"><path fill="#FFD173" stroke="none" d="M274.01 463.22h21.29V187.63h-21.29z" shape-rendering="crispEdges"/><path stroke="#1A1F29" d="M274.01 463.22V187.64h21.28v275.58h-21.28Z"/></g><g fill="none" stroke="currentColor" stroke-width="2" color="#000"><path fill="#FFD173" stroke="none" d="M359.1 463.22h21.28V358.73H359.1z" shape-rendering="crispEdges"/><path stroke="#1A1F29" d="M359.1 463.22V358.74h21.27v104.48H359.1Z"/></g><text fill="#E6EDF3" stroke-width="2" color="#000" font-family="Verdana" font-size="14" text-anchor="end" transform="translate(378.69 129.06)"><tspan>resize</tspan></text><g fill="none" stroke="currentColor" stroke-width="2" color="#000"><path fill="#D5FF80" stroke="none" d="M388.48 129.76h48.16v-10.5h-48.16z" shape-rendering="crispEdges"/><path stroke="#1A1F29" d="M388.48 129.76h48.16v-10.5h-48.16v10.5Z"/></g><g fill="none" stroke="currentColor" stroke-width="2" color="#000"><path fill="#D5FF80" stroke="none" d="M210.2 463.22h21.28V210.89H210.2z" shape-rendering="crispEdges"/><path stroke="#1A1F29" d="M210.2 463.22V210.9h21.27v252.32H210.2Z"/></g><g fill="none" stroke="currentColor" stroke-width="2" color="#000"><path fill="#D5FF80" stroke="none" d="M295.29 463.22h21.28V281.38h-21.28z" shape-rendering="crispEdges"/><path stroke="#1A1F29" d="M295.29 463.22V281.39h21.27v181.83h-21.27Z"/></g><path fill="none" stroke="#E6EDF3" d="M114.48 63.01v400.21h340.34V63.01H114.48Z" color="#000"/><text fill="#E6EDF3" color="#000" font-family="Verdana" font-size="18" text-anchor="middle" transform="translate(284.65 32.86)"><tspan>resizing</tspan></text></svg>