<svg xmlns="http://www.w3.org/2000/svg" width="600" height="480"><path fill="#fff" d="M0 0h600v480H0z"/><g fill="none" stroke="currentColor" color="#000"><path stroke="#000" d="M114.48 444h9m451.34 0h-9"/><text fill="#000" stroke="none" font-family="Arial" font-size="12" text-anchor="end" transform="translate(106.09 447.9)"><tspan> 0</tspan></text></g><g fill="none" stroke="currentColor" color="#000"><path stroke="#000" d="M114.48 380.5h9m451.34 0h-9"/><text fill="#000" stroke="none" font-family="Arial" font-size="12" text-anchor="end" transform="translate(106.09 384.4)"><tspan> 2x10</tspan><tspan dy="-6" font-size="9.6">9</tspan></text></g><g fill="none" stroke="currentColor" color="#000"><path stroke="#000" d="M114.48 317h9m451.34 0h-9"/><text fill="#000" stroke="none" font-family="Arial" font-size="12" text-anchor="end" transform="translate(106.09 320.9)"><tspan> 4x10</tspan><tspan dy="-6" font-size="9.6">9</tspan></text></g><g fill="none" stroke="currentColor" color="#000"><path stroke="#000" d="M114.48 253.5h9m451.34 0h-9"/><text fill="#000" stroke="none" font-family="Arial" font-size="12" text-anchor="end" transform="translate(106.09 257.4)"><tspan> 6x10</tspan><tspan dy="-6" font-size="9.6">9</tspan></text></g><g fill="none" stroke="currentColor" color="#000"><path stroke="#000" d="M114.48 190.01h9m451.34 0h-9"/><text fill="#000" stroke="none" font-family="Arial" font-size="12" text-anchor="end" transform="translate(106.09 193.91)"><tspan> 8x10</tspan><tspan dy="-6" font-size="9.6">9</tspan></text></g><g fill="none" stroke="currentColor" color="#000"><path stroke="#000" d="M114.48 126.51h9m451.34 0h-9"/><text fill="#000" stroke="none" font-family="Arial" font-size="12" text-anchor="end" transform="translate(106.09 130.41)"><tspan> 1x10</tspan><tspan dy="-6" font-size="9.6">10</tspan></text></g><g fill="none" stroke="currentColor" color="#000"><path stroke="#000" d="M114.48 63.01h9m451.34 0h-9"/><text fill="#000" stroke="none" font-family="Arial" font-size="12" text-anchor="end" transform="translate(106.09 66.91)"><tspan> 1.2x10</tspan><tspan dy="-6" font-size="9.6">10</tspan></text></g><g fill="none" stroke="currentColor" color="#000"><path stroke="#000" d="M229.57 444v-9m0-371.99v9"/><text fill="#000" stroke="none" font-family="Arial" font-size="12" text-anchor="middle" transform="translate(229.57 465.9)"><tspan>lanczos3</tspan></text></g><g fill="none" stroke="currentColor" color="#000"><path stroke="#000" d="M344.65 444v-9m0-371.99v9"/><text fill="#000" stroke="none" font-family="Arial" font-size="12" text-anchor="middle" transform="translate(344.65 465.9)"><tspan>catmull</tspan></text></g><g fill="none" stroke="currentColor" color="#000"><path stroke="#000" d="M459.74 444v-9m0-371.99v9"/><text fill="#000" stroke="none" font-family="Arial" font-size="12" text-anchor="middle" transform="translate(459.74 465.9)"><tspan>nearest</tspan></text></g><path fill="none" stroke="#000" d="M114.48 63.01V444h460.34V63.01H114.48Z" color="#000"/><text color="#000" font-family="Arial" font-size="12" text-anchor="middle" transform="rotate(-90 136.345 117.165)"><tspan>cycles</tspan></text><text color="#000" font-family="Arial" font-size="12" text-anchor="end" transform="translate(507.09 84.91)"><tspan>fimg</tspan></text><g fill="none" stroke="currentColor" color="#000"><path fill="#9400D3" stroke="none" d="M515.48 85.51h42.56v-9h-42.56z" shape-rendering="crispEdges"/><path stroke="#000" d="M515.48 85.51h42.56v-9h-42.56v9Z"/></g><g fill="none" stroke="currentColor" color="#000"><path fill="#9400D3" stroke="none" d="M186.41 444h28.78v-53.53h-28.78z" shape-rendering="crispEdges"/><path stroke="#000" d="M186.41 444v-53.52h28.77V444h-28.77Z"/></g><g fill="none" stroke="currentColor" color="#000"><path fill="#9400D3" stroke="none" d="M301.49 444h28.78v-43.95h-28.78z" shape-rendering="crispEdges"/><path stroke="#000" d="M301.49 444v-43.94h28.77V444h-28.77Z"/></g><g fill="none" stroke="currentColor" color="#000"><path fill="#9400D3" stroke="none" d="M416.58 444h28.78v-7.81h-28.78z" shape-rendering="crispEdges"/><path stroke="#000" d="M416.58 444v-7.8h28.77v7.8h-28.77Z"/></g><text color="#000" font-family="Arial" font-size="12" text-anchor="end" transform="translate(507.09 102.91)"><tspan>imgproc</tspan></text><g fill="none" stroke="currentColor" color="#000"><path fill="#009E73" stroke="none" d="M515.48 103.51h42.56v-9h-42.56z" shape-rendering="crispEdges"/><path stroke="#000" d="M515.48 103.51h42.56v-9h-42.56v9Z"/></g><g fill="none" stroke="currentColor" color="#000"><path fill="#009E73" stroke="none" d="M215.18 444h28.78V71.82h-28.78z" shape-rendering="crispEdges"/><path stroke="#000" d="M215.18 444V71.83h28.77V444h-28.77Z"/></g><g fill="none" stroke="currentColor" color="#000"><path fill="#009E73" stroke="none" d="M330.26 444h28.79V166.29h-28.79z" shape-rendering="crispEdges"/><path stroke="#000" d="M330.26 444V166.3h28.78V444h-28.78Z"/></g><g fill="none" stroke="currentColor" color="#000"><path fill="#009E73" stroke="none" d="M445.35 444h28.78V332.24h-28.78z" shape-rendering="crispEdges"/><path stroke="#000" d="M445.35 444V332.25h28.77V444h-28.77Z"/></g><text color="#000" font-family="Arial" font-size="12" text-anchor="end" transform="translate(507.09 120.91)"><tspan>resize</tspan></text><g fill="none" stroke="currentColor" color="#000"><path fill="#56B4E9" stroke="none" d="M515.48 121.51h42.56v-9h-42.56z" shape-rendering="crispEdges"/><path stroke="#000" d="M515.48 121.51h42.56v-9h-42.56v9Z"/></g><g fill="none" stroke="currentColor" color="#000"><path fill="#56B4E9" stroke="none" d="M243.95 444h28.78V203.79h-28.78z" shape-rendering="crispEdges"/><path stroke="#000" d="M243.95 444V203.8h28.77V444h-28.77Z"/></g><g fill="none" stroke="currentColor" color="#000"><path fill="#56B4E9" stroke="none" d="M359.04 444h28.78V270.9h-28.78z" shape-rendering="crispEdges"/><path stroke="#000" d="M359.04 444V270.91h28.77V444h-28.77Z"/></g><path fill="none" stroke="#000" d="M114.48 63.01V444h460.34V63.01H114.48Z" color="#000"/><text color="#000" font-family="Verdana" font-size="18" text-anchor="middle" transform="translate(344.65 32.86)"><tspan>resizing</tspan></text></svg>