<svg xmlns="http://www.w3.org/2000/svg" width="600" height="480"><path fill="#fff" d="M0 0h600v480H0z"/><g fill="none" stroke="currentColor" color="#000"><path stroke="#000" d="M114.48 444h9m451.34 0h-9"/><text fill="#000" stroke="none" font-family="Arial" font-size="12" text-anchor="end" transform="translate(106.09 447.9)"><tspan> 0</tspan></text></g><g fill="none" stroke="currentColor" color="#000"><path stroke="#000" d="M114.48 380.5h9m451.34 0h-9"/><text fill="#000" stroke="none" font-family="Arial" font-size="12" text-anchor="end" transform="translate(106.09 384.4)"><tspan> 2x10</tspan><tspan dy="-6" font-size="9.6">9</tspan></text></g><g fill="none" stroke="currentColor" color="#000"><path stroke="#000" d="M114.48 317h9m451.34 0h-9"/><text fill="#000" stroke="none" font-family="Arial" font-size="12" text-anchor="end" transform="translate(106.09 320.9)"><tspan> 4x10</tspan><tspan dy="-6" font-size="9.6">9</tspan></text></g><g fill="none" stroke="currentColor" color="#000"><path stroke="#000" d="M114.48 253.5h9m451.34 0h-9"/><text fill="#000" stroke="none" font-family="Arial" font-size="12" text-anchor="end" transform="translate(106.09 257.4)"><tspan> 6x10</tspan><tspan dy="-6" font-size="9.6">9</tspan></text></g><g fill="none" stroke="currentColor" color="#000"><path stroke="#000" d="M114.48 190.01h9m451.34 0h-9"/><text fill="#000" stroke="none" font-family="Arial" font-size="12" text-anchor="end" transform="translate(106.09 193.91)"><tspan> 8x10</tspan><tspan dy="-6" font-size="9.6">9</tspan></text></g><g fill="none" stroke="currentColor" color="#000"><path stroke="#000" d="M114.48 126.51h9m451.34 0h-9"/><text fill="#000" stroke="none" font-family="Arial" font-size="12" text-anchor="end" transform="translate(106.09 130.41)"><tspan> 1x10</tspan><tspan dy="-6" font-size="9.6">10</tspan></text></g><g fill="none" stroke="currentColor" color="#000"><path stroke="#000" d="M114.48 63.01h9m451.34 0h-9"/><text fill="#000" stroke="none" font-family="Arial" font-size="12" text-anchor="end" transform="translate(106.09 66.91)"><tspan> 1.2x10</tspan><tspan dy="-6" font-size="9.6">10</tspan></text></g><g fill="none" stroke="currentColor" color="#000"><path stroke="#000" d="M229.57 444v-9m0-371.99v9"/><text fill="#000" stroke="none" font-family="Arial" font-size="12" text-anchor="middle" transform="translate(229.57 465.9)"><tspan>lanczos3</tspan></text></g><g fill="none" stroke="currentColor" color="#000"><path stroke="#000" d="M344.65 444v-9m0-371.99v9"/><text fill="#000" stroke="none" font-family="Arial" font-size="12" text-anchor="middle" transform="translate(344.65 465.9)"><tspan>catmull</tspan></text></g><g fill="none" stroke="currentColor" color="#000"><path stroke="#000" d="M459.74 444v-9m0-371.99v9"/><text fill="#000" stroke="none" font-family="Arial" font-size="12" text-anchor="middle" transform="translate(459.74 465.9)"><tspan>nearest</tspan></text></g><path fill="none" stroke="#000" d="M114.48 63.01V444h460.34V63.01H114.48Z" color="#000"/><text color="#000" font-family="Arial" font-size="12" text-anchor="middle" transform="rotate(-90 136.345 117.165)"><tspan>cycles</tspan></text><text color="#000" font-family="Arial" font-size="12" text-anchor="end" transform="translate(507.09 84.91)"><tspan>fimg</tspan></text><g fill="none" stroke="currentColor" color="#000"><path fill="#9400D3" stroke="none" d="M515.48 85.51h42.56v-9h-42.56z" shape-rendering="crispEdges"/><path stroke="#000" d="M515.48 85.51h42.56v-9h-42.56v9Z"/></g><g fill="none" stroke="currentColor" color="#000"><path fill="#9400D3" stroke="none" d="M191.2 444h38.38v-53.53H191.2z" shape-rendering="crispEdges"/><path stroke="#000" d="M191.2 444v-53.52h38.37V444H191.2Z"/></g><g fill="none" stroke="currentColor" color="#000"><path fill="#9400D3" stroke="none" d="M306.29 444h38.37v-43.95h-38.37z" shape-rendering="crispEdges"/><path stroke="#000" d="M306.29 444v-43.94h38.36V444h-38.36Z"/></g><g fill="none" stroke="currentColor" color="#000"><path fill="#9400D3" stroke="none" d="M421.37 444h38.38v-7.81h-38.38z" shape-rendering="crispEdges"/><path stroke="#000" d="M421.37 444v-7.8h38.37v7.8h-38.37Z"/></g><text color="#000" font-family="Arial" font-size="12" text-anchor="end" transform="translate(507.09 102.91)"><tspan>imgproc</tspan></text><g fill="none" stroke="currentColor" color="#000"><path fill="#009E73" stroke="none" d="M515.48 103.51h42.56v-9h-42.56z" shape-rendering="crispEdges"/><path stroke="#000" d="M515.48 103.51h42.56v-9h-42.56v9Z"/></g><g fill="none" stroke="currentColor" color="#000"><path fill="#009E73" stroke="none" d="M229.57 444h38.37V71.82h-38.37z" shape-rendering="crispEdges"/><path stroke="#000" d="M229.57 444V71.83h38.36V444h-38.36Z"/></g><g fill="none" stroke="currentColor" color="#000"><path fill="#009E73" stroke="none" d="M344.65 444h38.37V166.29h-38.37z" shape-rendering="crispEdges"/><path stroke="#000" d="M344.65 444V166.3h38.36V444h-38.36Z"/></g><g fill="none" stroke="currentColor" color="#000"><path fill="#009E73" stroke="none" d="M459.74 444h38.37V332.24h-38.37z" shape-rendering="crispEdges"/><path stroke="#000" d="M459.74 444V332.25h38.36V444h-38.36Z"/></g><path fill="none" stroke="#000" d="M114.48 63.01V444h460.34V63.01H114.48Z" color="#000"/><text color="#000" font-family="Verdana" font-size="18" text-anchor="middle" transform="translate(344.65 32.86)"><tspan>resizing</tspan></text></svg>