<svg xmlns="http://www.w3.org/2000/svg" width="480" height="480"><path fill="#0d1117" d="M0 0h480v480H0z"/><path fill="none" stroke="#1F2430" stroke-dasharray="5,8" stroke-width="2" d="M114.48 444h340.34" class="gridline" color="#000"/><g fill="none" stroke="currentColor" color="#000"><path stroke="#E6EDF3" d="M114.48 444h9m331.34 0h-9"/><text fill="#E6EDF3" stroke="none" font-family="Arial" font-size="12" text-anchor="end" transform="translate(106.09 447.9)"><tspan> 0</tspan></text></g><path fill="none" stroke="#1F2430" stroke-dasharray="5,8" stroke-width="2" d="M114.48 380.5h340.34" class="gridline" color="#000"/><g fill="none" stroke="currentColor" color="#000"><path stroke="#E6EDF3" d="M114.48 380.5h9m331.34 0h-9"/><text fill="#E6EDF3" stroke="none" font-family="Arial" font-size="12" text-anchor="end" transform="translate(106.09 384.4)"><tspan> 2x10</tspan><tspan dy="-6" font-size="9.6">9</tspan></text></g><path fill="none" stroke="#1F2430" stroke-dasharray="5,8" stroke-width="2" d="M114.48 317h340.34" class="gridline" color="#000"/><g fill="none" stroke="currentColor" color="#000"><path stroke="#E6EDF3" d="M114.48 317h9m331.34 0h-9"/><text fill="#E6EDF3" stroke="none" font-family="Arial" font-size="12" text-anchor="end" transform="translate(106.09 320.9)"><tspan> 4x10</tspan><tspan dy="-6" font-size="9.6">9</tspan></text></g><path fill="none" stroke="#1F2430" stroke-dasharray="5,8" stroke-width="2" d="M114.48 253.5h340.34" class="gridline" color="#000"/><g fill="none" stroke="currentColor" color="#000"><path stroke="#E6EDF3" d="M114.48 253.5h9m331.34 0h-9"/><text fill="#E6EDF3" stroke="none" font-family="Arial" font-size="12" text-anchor="end" transform="translate(106.09 257.4)"><tspan> 6x10</tspan><tspan dy="-6" font-size="9.6">9</tspan></text></g><path fill="none" stroke="#1F2430" stroke-dasharray="5,8" stroke-width="2" d="M114.48 190.01h340.34" class="gridline" color="#000"/><g fill="none" stroke="currentColor" color="#000"><path stroke="#E6EDF3" d="M114.48 190.01h9m331.34 0h-9"/><text fill="#E6EDF3" stroke="none" font-family="Arial" font-size="12" text-anchor="end" transform="translate(106.09 193.91)"><tspan> 8x10</tspan><tspan dy="-6" font-size="9.6">9</tspan></text></g><path fill="none" stroke="#1F2430" stroke-dasharray="5,8" stroke-width="2" d="M114.48 126.51h195.68m136.27 0h8.39" class="gridline" color="#000"/><g fill="none" stroke="currentColor" color="#000"><path stroke="#E6EDF3" d="M114.48 126.51h9m331.34 0h-9"/><text fill="#E6EDF3" stroke="none" font-family="Arial" font-size="12" text-anchor="end" transform="translate(106.09 130.41)"><tspan> 1x10</tspan><tspan dy="-6" font-size="9.6">10</tspan></text></g><path fill="none" stroke="#1F2430" stroke-dasharray="5,8" stroke-width="2" d="M114.48 63.01h340.34" class="gridline" color="#000"/><g fill="none" stroke="currentColor" color="#000"><path stroke="#E6EDF3" d="M114.48 63.01h9m331.34 0h-9"/><text fill="#E6EDF3" stroke="none" font-family="Arial" font-size="12" text-anchor="end" transform="translate(106.09 66.91)"><tspan> 1.2x10</tspan><tspan dy="-6" font-size="9.6">10</tspan></text></g><g fill="none" stroke="currentColor" color="#000"><path stroke="#E6EDF3" d="M199.57 444v-9"/><text fill="#E6EDF3" stroke="none" font-family="Arial" font-size="12" text-anchor="middle" transform="translate(199.57 465.9)"><tspan>lanczos3</tspan></text></g><g fill="none" stroke="currentColor" color="#000"><path stroke="#E6EDF3" d="M284.65 444v-9"/><text fill="#E6EDF3" stroke="none" font-family="Arial" font-size="12" text-anchor="middle" transform="translate(284.65 465.9)"><tspan>catmull</tspan></text></g><g fill="none" stroke="currentColor" color="#000"><path stroke="#E6EDF3" d="M369.74 444v-9"/><text fill="#E6EDF3" stroke="none" font-family="Arial" font-size="12" text-anchor="middle" transform="translate(369.74 465.9)"><tspan>nearest</tspan></text></g><path fill="none" stroke="#E6EDF3" d="M114.48 63.01V444h340.34V63.01H114.48Z" color="#000"/><text fill="#E6EDF3" color="#000" font-family="Verdana" font-size="18" text-anchor="middle" transform="rotate(-90 137.32 116.19)"><tspan>cycles</tspan></text><text fill="#E6EDF3" stroke-width="2" color="#000" font-family="Verdana" font-size="14" text-anchor="end" transform="translate(378.69 87.06)"><tspan>fimg</tspan></text><g fill="none" stroke="currentColor" stroke-width="2" color="#000"><path fill="#73D0FF" stroke="none" d="M388.48 87.76h48.16v-10.5h-48.16z" shape-rendering="crispEdges"/><path stroke="#1A1F29" d="M388.48 87.76h48.16v-10.5h-48.16v10.5Z"/></g><g fill="none" stroke="currentColor" stroke-width="2" color="#000"><path fill="#73D0FF" stroke="none" d="M167.66 444h21.28v-53.53h-21.28z" shape-rendering="crispEdges"/><path stroke="#1A1F29" d="M167.66 444v-53.52h21.27V444h-21.27Z"/></g><g fill="none" stroke="currentColor" stroke-width="2" color="#000"><path fill="#73D0FF" stroke="none" d="M252.74 444h21.28v-43.95h-21.28z" shape-rendering="crispEdges"/><path stroke="#1A1F29" d="M252.74 444v-43.94h21.27V444h-21.27Z"/></g><g fill="none" stroke="currentColor" stroke-width="2" color="#000"><path fill="#73D0FF" stroke="none" d="M337.83 444h21.28v-7.81h-21.28z" shape-rendering="crispEdges"/><path stroke="#1A1F29" d="M337.83 444v-7.8h21.27v7.8h-21.27Z"/></g><text fill="#E6EDF3" stroke-width="2" color="#000" font-family="Verdana" font-size="14" text-anchor="end" transform="translate(378.69 108.06)"><tspan>imgproc</tspan></text><g fill="none" stroke="currentColor" stroke-width="2" color="#000"><path fill="#FFD173" stroke="none" d="M388.48 108.76h48.16v-10.5h-48.16z" shape-rendering="crispEdges"/><path stroke="#1A1F29" d="M388.48 108.76h48.16v-10.5h-48.16v10.5Z"/></g><g fill="none" stroke="currentColor" stroke-width="2" color="#000"><path fill="#FFD173" stroke="none" d="M188.93 444h21.28V71.82h-21.28z" shape-rendering="crispEdges"/><path stroke="#1A1F29" d="M188.93 444V71.83h21.27V444h-21.27Z"/></g><g fill="none" stroke="currentColor" stroke-width="2" color="#000"><path fill="#FFD173" stroke="none" d="M274.01 444h21.29V166.29h-21.29z" shape-rendering="crispEdges"/><path stroke="#1A1F29" d="M274.01 444V166.3h21.28V444h-21.28Z"/></g><g fill="none" stroke="currentColor" stroke-width="2" color="#000"><path fill="#FFD173" stroke="none" d="M359.1 444h21.28V332.24H359.1z" shape-rendering="crispEdges"/><path stroke="#1A1F29" d="M359.1 444V332.25h21.27V444H359.1Z"/></g><text fill="#E6EDF3" stroke-width="2" color="#000" font-family="Verdana" font-size="14" text-anchor="end" transform="translate(378.69 129.06)"><tspan>resize</tspan></text><g fill="none" stroke="currentColor" stroke-width="2" color="#000"><path fill="#D5FF80" stroke="none" d="M388.48 129.76h48.16v-10.5h-48.16z" shape-rendering="crispEdges"/><path stroke="#1A1F29" d="M388.48 129.76h48.16v-10.5h-48.16v10.5Z"/></g><g fill="none" stroke="currentColor" stroke-width="2" color="#000"><path fill="#D5FF80" stroke="none" d="M210.2 444h21.28V203.79H210.2z" shape-rendering="crispEdges"/><path stroke="#1A1F29" d="M210.2 444V203.8h21.27V444H210.2Z"/></g><g fill="none" stroke="currentColor" stroke-width="2" color="#000"><path fill="#D5FF80" stroke="none" d="M295.29 444h21.28V270.9h-21.28z" shape-rendering="crispEdges"/><path stroke="#1A1F29" d="M295.29 444V270.91h21.27V444h-21.27Z"/></g><path fill="none" stroke="#E6EDF3" d="M114.48 63.01V444h340.34V63.01H114.48Z" color="#000"/><text fill="#E6EDF3" color="#000" font-family="Verdana" font-size="18" text-anchor="middle" transform="translate(284.65 32.86)"><tspan>resizing</tspan></text></svg>